<svg width="122" height="40" viewBox="0 0 122 40" fill="none" xmlns="http://www.w3.org/2000/svg">
<path d="M111.662 0.00013H10.2214C9.85159 0.00013 9.48626 0.00013 9.11747 0.00213C8.80877 0.00413 8.50252 0.00994 8.19085 0.01483C7.51375 0.0227318 6.83824 0.0818063 6.1702 0.19154C5.50309 0.303663 4.85689 0.515046 4.25343 0.81854C3.65072 1.1246 3.1 1.5223 2.62126 1.9972C2.14 2.47077 1.73884 3.01815 1.43319 3.61829C1.1267 4.21724 0.914181 4.85907 0.802969 5.52161C0.690699 6.18332 0.630286 6.85265 0.622271 7.52361C0.612914 7.83021 0.611925 8.13783 0.606995 8.44447V31.5587C0.611925 31.8692 0.612914 32.17 0.622271 32.4806C0.630288 33.1516 0.690702 33.8209 0.802969 34.4825C0.913874 35.1455 1.12641 35.7877 1.43319 36.3868C1.7387 36.985 2.13992 37.5302 2.62126 38.0011C3.09819 38.4781 3.64926 38.8761 4.25343 39.1798C4.85688 39.4841 5.50302 39.6968 6.1702 39.8106C6.83836 39.9195 7.51379 39.9786 8.19085 39.9874C8.50252 39.9942 8.80877 39.9981 9.11747 39.9981C9.48625 40.0001 9.85161 40.0001 10.2214 40.0001H111.662C112.025 40.0001 112.393 40.0001 112.755 39.9981C113.062 39.9981 113.378 39.9942 113.685 39.9874C114.361 39.9791 115.035 39.92 115.702 39.8106C116.371 39.696 117.019 39.4834 117.626 39.1798C118.229 38.8759 118.78 38.478 119.256 38.0011C119.736 37.5284 120.139 36.9836 120.448 36.3868C120.752 35.7872 120.963 35.1451 121.072 34.4825C121.185 33.8208 121.247 33.1516 121.259 32.4806C121.263 32.17 121.263 31.8692 121.263 31.5587C121.271 31.1954 121.271 30.8341 121.271 30.4649V9.53626C121.271 9.17005 121.271 8.80677 121.263 8.44447C121.263 8.13783 121.263 7.83021 121.259 7.52357C121.247 6.85255 121.185 6.18337 121.072 5.52157C120.963 4.85941 120.752 4.21763 120.448 3.61825C119.825 2.41533 118.838 1.43616 117.626 0.81845C117.019 0.515697 116.371 0.30437 115.702 0.19145C115.035 0.0812328 114.361 0.0221378 113.685 0.01469C113.378 0.00981 113.062 0.00395 112.755 0.002C112.393 0 112.025 0 111.662 0V0.00013Z" fill="#A6A6A6"/>
<path d="M9.12246 39.125C8.81524 39.125 8.51543 39.1211 8.21061 39.1143C7.57916 39.1061 6.94919 39.0516 6.32585 38.9512C5.74463 38.8519 5.18158 38.6673 4.65527 38.4033C4.13379 38.1415 3.65816 37.7983 3.2466 37.3867C2.82908 36.98 2.48147 36.5082 2.21756 35.9902C1.95074 35.4688 1.76608 34.9099 1.67002 34.333C1.56628 33.7131 1.51016 33.0863 1.50213 32.458C1.49574 32.2471 1.48737 31.5449 1.48737 31.5449V8.44434C1.48737 8.44434 1.49628 7.75293 1.50218 7.5498C1.50987 6.92248 1.56567 6.29665 1.66909 5.67773C1.76533 5.09925 1.95013 4.53875 2.21709 4.01563C2.48004 3.49794 2.82571 3.02586 3.24072 2.61768C3.65525 2.20562 4.13241 1.8606 4.65478 1.59521C5.17987 1.33209 5.74186 1.14873 6.32191 1.05127C6.94729 0.949836 7.57945 0.894996 8.2131 0.88721L9.12296 0.875H112.75L113.671 0.8877C114.299 0.895099 114.925 0.94945 115.545 1.05029C116.131 1.14898 116.699 1.33362 117.23 1.59814C118.276 2.13299 119.128 2.97916 119.665 4.01807C119.928 4.53758 120.11 5.09351 120.205 5.66699C120.309 6.29099 120.368 6.92174 120.38 7.5542C120.383 7.8374 120.383 8.1416 120.383 8.44434C120.391 8.81934 120.391 9.17627 120.391 9.53613V30.4648C120.391 30.8281 120.391 31.1826 120.383 31.54C120.383 31.8652 120.383 32.1631 120.379 32.4697C120.367 33.0909 120.31 33.7104 120.207 34.3232C120.113 34.9043 119.929 35.4675 119.662 35.9932C119.396 36.5056 119.051 36.9733 118.638 37.3789C118.226 37.7927 117.75 38.1379 117.227 38.4014C116.697 38.6674 116.13 38.8527 115.545 38.9512C114.922 39.0522 114.292 39.1067 113.66 39.1143C113.365 39.1211 113.056 39.125 112.755 39.125L111.662 39.127L9.12246 39.125Z" fill="black"/>
<path d="M25.583 20.3008C25.5938 19.4662 25.8174 18.6478 26.2328 17.9218C26.6483 17.1959 27.2422 16.5859 27.9592 16.1488C27.5037 15.5036 26.9028 14.9727 26.2042 14.5981C25.5055 14.2236 24.7285 14.0157 23.9347 13.9911C22.2414 13.8148 20.5999 14.9959 19.737 14.9959C18.8574 14.9959 17.5289 14.0086 16.0984 14.0378C15.173 14.0674 14.2712 14.3343 13.4808 14.8123C12.6903 15.2904 12.0383 15.9633 11.5881 16.7656C9.63789 20.1141 11.0925 25.0351 12.9606 27.7417C13.8953 29.0671 14.9876 30.5475 16.4169 30.495C17.8156 30.4375 18.3379 29.6105 20.0262 29.6105C21.6988 29.6105 22.1889 30.495 23.6472 30.4616C25.148 30.4375 26.0936 29.1304 26.9955 27.7925C27.667 26.8481 28.1838 25.8044 28.5266 24.7C27.6547 24.3343 26.9106 23.7221 26.3871 22.9398C25.8637 22.1575 25.584 21.2397 25.583 20.3008Z" fill="white"/>
<path d="M22.8286 12.2111C23.6469 11.2369 24.05 9.98469 23.9524 8.72046C22.7022 8.85068 21.5474 9.44324 20.718 10.3801C20.3125 10.8377 20.0019 11.3702 19.804 11.9469C19.6062 12.5237 19.5248 13.1335 19.5647 13.7415C20.1901 13.7478 20.8087 13.6134 21.374 13.3483C21.9394 13.0833 22.4367 12.6944 22.8286 12.2111Z" fill="white"/>
<path d="M43.2631 27.1397H38.4901L37.3439 30.4961H35.3223L39.8431 18.0781H41.9435L46.4644 30.4961H44.4083L43.2631 27.1397ZM38.9844 25.5908H42.7678L40.9027 20.1436H40.8505L38.9844 25.5908Z" fill="white"/>
<path d="M56.228 25.9699C56.228 28.7834 54.7096 30.591 52.4181 30.591C51.8377 30.6211 51.2604 30.4885 50.7524 30.2084C50.2444 29.9283 49.8262 29.5119 49.5457 29.007H49.5023V33.4914H47.6284V21.4426H49.4423V22.9485H49.4768C49.7702 22.446 50.1954 22.0318 50.7073 21.7499C51.2192 21.4681 51.7985 21.3291 52.3837 21.3479C54.7007 21.3479 56.228 23.1643 56.228 25.9699ZM54.3019 25.9699C54.3019 24.1369 53.3467 22.9319 51.8893 22.9319C50.4576 22.9319 49.4945 24.1623 49.4945 25.9699C49.4945 27.7942 50.4576 29.0158 51.8893 29.0158C53.3467 29.0158 54.3019 27.8196 54.3019 25.9699Z" fill="white"/>
<path d="M66.2761 25.9699C66.2761 28.7834 64.7577 30.591 62.4662 30.591C61.8858 30.6211 61.3085 30.4885 60.8005 30.2084C60.2925 29.9283 59.8743 29.5119 59.5938 29.007H59.5504V33.4914H57.6765V21.4426H59.4904V22.9484H59.5248C59.8182 22.446 60.2435 22.0318 60.7553 21.7499C61.2672 21.4681 61.8466 21.3291 62.4317 21.3479C64.7488 21.3479 66.2761 23.1643 66.2761 25.9699ZM64.35 25.9699C64.35 24.1369 63.3948 22.9318 61.9374 22.9318C60.5056 22.9318 59.5426 24.1623 59.5426 25.9699C59.5426 27.7942 60.5056 29.0158 61.9374 29.0158C63.3948 29.0158 64.35 27.8195 64.35 25.9699H64.35Z" fill="white"/>
<path d="M72.9172 27.0362C73.056 28.2676 74.2623 29.0762 75.9107 29.0762C77.4902 29.0762 78.6266 28.2676 78.6266 27.1572C78.6266 26.1934 77.9412 25.6162 76.3184 25.2207L74.6956 24.833C72.3963 24.2822 71.3288 23.2158 71.3288 21.4854C71.3288 19.3428 73.2116 17.8711 75.8851 17.8711C78.5311 17.8711 80.3449 19.3428 80.406 21.4854H78.5143C78.4011 20.2461 77.3681 19.4981 75.8585 19.4981C74.3489 19.4981 73.316 20.2549 73.316 21.3565C73.316 22.2344 73.9757 22.751 75.5897 23.1465L76.9693 23.4824C79.5384 24.0849 80.6059 25.1084 80.6059 26.9248C80.6059 29.248 78.7398 30.7031 75.7719 30.7031C72.9949 30.7031 71.12 29.2822 70.9989 27.0361L72.9172 27.0362Z" fill="white"/>
<path d="M84.6501 19.2998V21.4424H86.3862V22.9141H84.6501V27.9053C84.6501 28.6807 84.9977 29.042 85.7609 29.042C85.967 29.0384 86.1728 29.0241 86.3773 28.999V30.4619C86.0342 30.5255 85.6855 30.5543 85.3365 30.5478C83.4882 30.5478 82.7673 29.8593 82.7673 28.1035V22.9141H81.4399V21.4424H82.7673V19.2998H84.6501Z" fill="white"/>
<path d="M87.3916 25.9697C87.3916 23.1211 89.0833 21.3311 91.7214 21.3311C94.3684 21.3311 96.0522 23.1211 96.0522 25.9697C96.0522 28.8262 94.3772 30.6084 91.7214 30.6084C89.0666 30.6084 87.3916 28.8262 87.3916 25.9697ZM94.1429 25.9697C94.1429 24.0156 93.2399 22.8623 91.7214 22.8623C90.203 22.8623 89.301 24.0244 89.301 25.9697C89.301 27.9316 90.203 29.0762 91.7214 29.0762C93.2399 29.0762 94.1428 27.9316 94.1428 25.9697H94.1429Z" fill="white"/>
<path d="M97.5973 21.4425H99.3846V22.9835H99.4279C99.5489 22.5022 99.8332 22.0769 100.233 21.779C100.633 21.4811 101.124 21.3288 101.624 21.3478C101.84 21.347 102.055 21.3703 102.266 21.4171V23.1554C101.993 23.0728 101.709 23.0348 101.424 23.0431C101.152 23.0321 100.88 23.0797 100.628 23.1826C100.376 23.2855 100.15 23.4412 99.9644 23.6391C99.7789 23.837 99.6388 24.0724 99.5536 24.3291C99.4685 24.5857 99.4404 24.8576 99.4712 25.1261V30.4962H97.5973L97.5973 21.4425Z" fill="white"/>
<path d="M110.906 27.8369C110.654 29.4805 109.04 30.6084 106.975 30.6084C104.319 30.6084 102.671 28.8437 102.671 26.0127C102.671 23.1729 104.328 21.3311 106.896 21.3311C109.422 21.3311 111.01 23.0518 111.01 25.7969V26.4336H104.562V26.5459C104.532 26.8791 104.574 27.2148 104.686 27.5306C104.797 27.8464 104.974 28.1352 105.207 28.3778C105.439 28.6203 105.72 28.8111 106.033 28.9374C106.345 29.0637 106.681 29.1227 107.018 29.1103C107.461 29.1515 107.905 29.0498 108.285 28.8203C108.665 28.5909 108.96 28.246 109.126 27.8369L110.906 27.8369ZM104.571 25.1348H109.135C109.152 24.8352 109.106 24.5354 109.001 24.2541C108.895 23.9729 108.732 23.7164 108.522 23.5006C108.312 23.2849 108.059 23.1145 107.779 23.0003C107.499 22.8861 107.198 22.8305 106.896 22.8369C106.591 22.8351 106.288 22.8933 106.006 23.008C105.724 23.1227 105.467 23.2918 105.251 23.5054C105.035 23.7191 104.863 23.973 104.747 24.2527C104.63 24.5323 104.57 24.8321 104.571 25.1348V25.1348Z" fill="white"/>
<path d="M38.7493 8.73089C39.1421 8.70293 39.5364 8.76179 39.9035 8.90323C40.2707 9.04466 40.6016 9.26514 40.8724 9.54876C41.1433 9.83239 41.3472 10.1721 41.4697 10.5434C41.5921 10.9146 41.6299 11.3082 41.5804 11.6957C41.5804 13.602 40.5415 14.6977 38.7493 14.6977H36.576V8.73089H38.7493ZM37.5105 13.8539H38.6449C38.9256 13.8705 39.2066 13.8249 39.4673 13.7203C39.728 13.6157 39.9619 13.4547 40.1519 13.2491C40.342 13.0436 40.4834 12.7986 40.566 12.532C40.6485 12.2653 40.6701 11.9838 40.6291 11.7079C40.6671 11.4331 40.6434 11.1533 40.5596 10.8886C40.4758 10.624 40.3339 10.381 40.1443 10.177C39.9547 9.9731 39.7219 9.81329 39.4627 9.70905C39.2034 9.60481 38.9242 9.55873 38.6449 9.5741H37.5105V13.8539Z" fill="white"/>
<path d="M42.636 12.4443C42.6074 12.1484 42.6416 11.8498 42.7362 11.5677C42.8308 11.2857 42.9838 11.0263 43.1855 10.8063C43.3871 10.5864 43.6328 10.4106 43.9069 10.2903C44.1811 10.17 44.4775 10.1079 44.7773 10.1079C45.077 10.1079 45.3735 10.17 45.6476 10.2903C45.9217 10.4106 46.1675 10.5864 46.3691 10.8063C46.5707 11.0263 46.7237 11.2857 46.8183 11.5677C46.913 11.8498 46.9471 12.1484 46.9185 12.4443C46.9476 12.7405 46.9139 13.0395 46.8195 13.322C46.7252 13.6045 46.5722 13.8644 46.3706 14.0848C46.1689 14.3052 45.923 14.4813 45.6486 14.6019C45.3742 14.7224 45.0774 14.7847 44.7773 14.7847C44.4772 14.7847 44.1804 14.7224 43.906 14.6019C43.6316 14.4813 43.3856 14.3052 43.184 14.0848C42.9823 13.8644 42.8294 13.6045 42.735 13.322C42.6406 13.0395 42.6069 12.7405 42.636 12.4443ZM45.9968 12.4443C45.9968 11.4682 45.5547 10.8974 44.7787 10.8974C43.9998 10.8974 43.5617 11.4682 43.5617 12.4443C43.5617 13.4282 43.9999 13.9946 44.7787 13.9946C45.5547 13.9946 45.9968 13.4243 45.9968 12.4443H45.9968Z" fill="white"/>
<path d="M52.6113 14.6978H51.6817L50.7433 11.3813H50.6724L49.7379 14.6978H48.8171L47.5656 10.1948H48.4745L49.2878 13.6308H49.3548L50.2883 10.1948H51.148L52.0815 13.6308H52.1524L52.9618 10.1948H53.8579L52.6113 14.6978Z" fill="white"/>
<path d="M54.9105 10.1949H55.7731V10.9102H55.8401C55.9537 10.6533 56.1453 10.4379 56.3882 10.2941C56.6311 10.1503 56.9131 10.0852 57.1951 10.1079C57.416 10.0915 57.6379 10.1245 57.8442 10.2046C58.0505 10.2847 58.236 10.4098 58.3869 10.5707C58.5378 10.7315 58.6503 10.924 58.7161 11.1338C58.7818 11.3436 58.7991 11.5654 58.7667 11.7827V14.6977H57.8706V12.0059C57.8706 11.2823 57.5535 10.9224 56.8908 10.9224C56.7408 10.9155 56.5911 10.9408 56.4519 10.9966C56.3126 11.0525 56.1873 11.1375 56.0843 11.2459C55.9813 11.3543 55.9032 11.4834 55.8552 11.6246C55.8073 11.7657 55.7907 11.9154 55.8066 12.0635V14.6978H54.9105L54.9105 10.1949Z" fill="white"/>
<path d="M60.1946 8.43701H61.0907V14.6978H60.1946V8.43701Z" fill="white"/>
<path d="M62.3364 12.4444C62.3079 12.1484 62.342 11.8499 62.4367 11.5678C62.5313 11.2857 62.6844 11.0263 62.886 10.8064C63.0876 10.5864 63.3334 10.4106 63.6076 10.2903C63.8817 10.17 64.1782 10.1079 64.4779 10.1079C64.7777 10.1079 65.0742 10.17 65.3483 10.2903C65.6224 10.4106 65.8682 10.5864 66.0698 10.8064C66.2715 11.0263 66.4245 11.2857 66.5192 11.5678C66.6138 11.8499 66.648 12.1484 66.6195 12.4444C66.6485 12.7406 66.6147 13.0396 66.5203 13.3221C66.4259 13.6046 66.273 13.8645 66.0713 14.0849C65.8696 14.3053 65.6237 14.4814 65.3492 14.6019C65.0748 14.7225 64.778 14.7847 64.4779 14.7847C64.1778 14.7847 63.881 14.7225 63.6066 14.6019C63.3322 14.4814 63.0862 14.3053 62.8846 14.0849C62.6829 13.8645 62.5299 13.6046 62.4355 13.3221C62.3411 13.0396 62.3073 12.7406 62.3364 12.4444ZM65.6972 12.4444C65.6972 11.4683 65.2551 10.8975 64.4792 10.8975C63.7002 10.8975 63.2621 11.4683 63.2621 12.4444C63.2621 13.4283 63.7003 13.9947 64.4792 13.9947C65.2551 13.9947 65.6973 13.4244 65.6973 12.4444H65.6972Z" fill="white"/>
<path d="M67.5627 13.4243C67.5627 12.6138 68.1713 12.1465 69.2515 12.0801L70.4815 12.0098V11.6211C70.4815 11.1455 70.1644 10.8769 69.5519 10.8769C69.0517 10.8769 68.705 11.0591 68.6056 11.3774H67.738C67.8296 10.604 68.5632 10.1079 69.5932 10.1079C70.7316 10.1079 71.3736 10.6699 71.3736 11.6211V14.6977H70.511V14.0649H70.4401C70.2962 14.2919 70.0941 14.477 69.8545 14.6012C69.6149 14.7254 69.3463 14.7843 69.0763 14.7719C68.8857 14.7916 68.693 14.7714 68.5107 14.7127C68.3285 14.654 68.1606 14.5581 68.018 14.4311C67.8754 14.3042 67.7612 14.149 67.6828 13.9756C67.6044 13.8021 67.5635 13.6144 67.5627 13.4243ZM70.4815 13.0395V12.6631L69.3727 12.7334C68.7474 12.7749 68.4638 12.9858 68.4638 13.3828C68.4638 13.7881 68.8183 14.0239 69.3057 14.0239C69.4486 14.0382 69.5928 14.0239 69.73 13.9819C69.8671 13.9398 69.9943 13.8707 70.104 13.7789C70.2137 13.6871 70.3037 13.5743 70.3685 13.4473C70.4333 13.3202 70.4718 13.1816 70.4815 13.0395Z" fill="white"/>
<path d="M72.5514 12.4444C72.5514 11.0215 73.289 10.1201 74.4362 10.1201C74.7199 10.1072 75.0015 10.1746 75.2481 10.3145C75.4947 10.4544 75.696 10.661 75.8286 10.9101H75.8955V8.43701H76.7916V14.6978H75.9329V13.9863H75.862C75.7192 14.2338 75.5109 14.4378 75.2596 14.5763C75.0082 14.7148 74.7235 14.7825 74.4362 14.772C73.2811 14.772 72.5514 13.8706 72.5514 12.4444ZM73.4771 12.4444C73.4771 13.3994 73.931 13.9741 74.6902 13.9741C75.4455 13.9741 75.9123 13.3911 75.9123 12.4483C75.9123 11.5098 75.4406 10.9185 74.6902 10.9185C73.9359 10.9185 73.477 11.4971 73.477 12.4444H73.4771Z" fill="white"/>
<path d="M80.4991 12.4443C80.4706 12.1484 80.5047 11.8498 80.5994 11.5677C80.694 11.2857 80.847 11.0263 81.0486 10.8063C81.2502 10.5864 81.496 10.4106 81.7701 10.2903C82.0442 10.17 82.3407 10.1079 82.6404 10.1079C82.9402 10.1079 83.2366 10.17 83.5107 10.2903C83.7849 10.4106 84.0306 10.5864 84.2322 10.8063C84.4338 11.0263 84.5869 11.2857 84.6815 11.5677C84.7761 11.8498 84.8103 12.1484 84.7817 12.4443C84.8108 12.7405 84.7771 13.0395 84.6827 13.322C84.5883 13.6045 84.4354 13.8644 84.2337 14.0848C84.0321 14.3052 83.7861 14.4813 83.5117 14.6019C83.2373 14.7224 82.9405 14.7847 82.6404 14.7847C82.3403 14.7847 82.0435 14.7224 81.7691 14.6019C81.4947 14.4813 81.2488 14.3052 81.0471 14.0848C80.8455 13.8644 80.6925 13.6045 80.5982 13.322C80.5038 13.0395 80.4701 12.7405 80.4991 12.4443ZM83.86 12.4443C83.86 11.4682 83.4179 10.8974 82.6419 10.8974C81.863 10.8974 81.4248 11.4682 81.4248 12.4443C81.4248 13.4282 81.863 13.9946 82.6419 13.9946C83.4179 13.9946 83.86 13.4243 83.86 12.4443Z" fill="white"/>
<path d="M85.984 10.1949H86.8466V10.9102H86.9136C87.0272 10.6533 87.2188 10.4379 87.4617 10.2941C87.7045 10.1503 87.9866 10.0852 88.2686 10.1079C88.4895 10.0915 88.7113 10.1245 88.9176 10.2046C89.124 10.2847 89.3094 10.4098 89.4604 10.5707C89.6113 10.7315 89.7238 10.924 89.7896 11.1338C89.8553 11.3436 89.8726 11.5654 89.8402 11.7827V14.6977H88.9441V12.0059C88.9441 11.2823 88.627 10.9224 87.9643 10.9224C87.8143 10.9155 87.6645 10.9408 87.5253 10.9966C87.3861 11.0525 87.2607 11.1375 87.1578 11.2459C87.0548 11.3543 86.9767 11.4834 86.9287 11.6246C86.8808 11.7657 86.8642 11.9154 86.8801 12.0635V14.6978H85.984V10.1949Z" fill="white"/>
<path d="M94.9037 9.07373V10.2153H95.8874V10.9639H94.9037V13.2793C94.9037 13.751 95.0996 13.9575 95.5457 13.9575C95.6599 13.9572 95.774 13.9503 95.8874 13.937V14.6772C95.7265 14.7058 95.5634 14.721 95.4 14.7227C94.4034 14.7227 94.0066 14.375 94.0066 13.5068V10.9638H93.2858V10.2153H94.0066V9.07373H94.9037Z" fill="white"/>
<path d="M97.1113 8.43701H97.9996V10.9185H98.0704C98.1896 10.6591 98.3864 10.4426 98.6342 10.2982C98.8819 10.1539 99.1685 10.0888 99.4549 10.1118C99.6747 10.1 99.8944 10.1364 100.098 10.2184C100.302 10.3004 100.486 10.4261 100.635 10.5864C100.784 10.7468 100.896 10.9378 100.962 11.146C101.029 11.3541 101.048 11.5742 101.019 11.7905V14.6978H100.122V12.0098C100.122 11.2905 99.7839 10.9263 99.1507 10.9263C98.9967 10.9137 98.8418 10.9347 98.6968 10.9878C98.5518 11.0408 98.4203 11.1247 98.3114 11.2334C98.2025 11.3421 98.1189 11.4732 98.0664 11.6173C98.0139 11.7614 97.9938 11.9152 98.0075 12.0679V14.6977H97.1114L97.1113 8.43701Z" fill="white"/>
<path d="M106.244 13.482C106.122 13.8935 105.858 14.2495 105.498 14.4877C105.139 14.7258 104.706 14.831 104.276 14.7847C103.977 14.7926 103.68 14.7357 103.405 14.6182C103.13 14.5007 102.884 14.3253 102.685 14.1041C102.485 13.883 102.337 13.6214 102.249 13.3376C102.162 13.0538 102.138 12.7545 102.179 12.4605C102.139 12.1656 102.163 11.8657 102.251 11.581C102.338 11.2964 102.486 11.0336 102.684 10.8105C102.883 10.5874 103.127 10.4093 103.401 10.2881C103.675 10.1669 103.972 10.1054 104.272 10.108C105.536 10.108 106.298 10.964 106.298 12.378V12.6881H103.091V12.7379C103.077 12.9031 103.098 13.0695 103.153 13.2262C103.208 13.383 103.295 13.5267 103.408 13.6481C103.522 13.7696 103.66 13.8661 103.814 13.9315C103.968 13.9969 104.134 14.0297 104.301 14.0279C104.515 14.0534 104.732 14.0151 104.925 13.9179C105.117 13.8207 105.276 13.669 105.381 13.482L106.244 13.482ZM103.091 12.0308H105.385C105.396 11.8797 105.375 11.7279 105.324 11.5852C105.273 11.4425 105.192 11.312 105.087 11.2021C104.981 11.0923 104.854 11.0055 104.713 10.9473C104.572 10.8891 104.42 10.8609 104.267 10.8643C104.112 10.8624 103.958 10.8913 103.815 10.9492C103.671 11.0072 103.541 11.093 103.431 11.2017C103.322 11.3104 103.235 11.4398 103.177 11.5822C103.119 11.7246 103.089 11.8771 103.091 12.0308H103.091Z" fill="white"/>
</svg>
