<svg width="24" height="24" viewBox="0 0 24 24" fill="none" xmlns="http://www.w3.org/2000/svg">
<g id="ic/24/social/instagram">
<path id="Combined Shape" fill-rule="evenodd" clip-rule="evenodd" d="M16.0327 3H7.96729C5.22852 3 3 5.22839 3 7.96735V16.0326C3 18.7717 5.22852 21 7.96729 21H16.0327C18.7715 21 21 18.7716 21 16.0326V7.96735C21 5.22839 18.7715 3 16.0327 3ZM20 16.3579C20 18.3662 18.3662 20 16.3579 20H7.64209C5.63379 20.0001 4 18.3662 4 16.3579V7.64209C4 5.63391 5.63379 4 7.64209 4H16.3579C18.3662 4 20 5.63391 20 7.64209V16.3579ZM7.36182 12.0002C7.36182 9.44275 9.44238 7.36206 12 7.36206C14.5576 7.36206 16.6382 9.44275 16.6382 12.0002C16.6382 14.5576 14.5576 16.6382 12 16.6382C9.44238 16.6382 7.36182 14.5576 7.36182 12.0002ZM16.7686 5.63458C16.8433 5.61188 16.9214 5.59998 17 5.59998C17.2109 5.59998 17.4175 5.68506 17.5659 5.83417C17.7153 5.98254 17.8003 6.18909 17.8003 6.39996C17.8003 6.61017 17.7153 6.81671 17.5659 6.96582C17.417 7.11414 17.2109 7.19995 17 7.19995C16.79 7.19995 16.5835 7.11414 16.4351 6.96582C16.2861 6.81671 16.2002 6.61023 16.2002 6.39996C16.2002 6.18909 16.2861 5.98254 16.4351 5.83417C16.5278 5.74084 16.6436 5.67255 16.7686 5.63458Z" fill="white"/>
<mask id="mask0" mask-type="alpha" maskUnits="userSpaceOnUse" x="7" y="5" width="11" height="12">
<path id="Combined Shape_2" fill-rule="evenodd" clip-rule="evenodd" d="M16.7686 5.63458C16.8433 5.61188 16.9214 5.59998 17 5.59998C17.2109 5.59998 17.4175 5.68506 17.5659 5.83417C17.7153 5.98254 17.8003 6.18909 17.8003 6.39996C17.8003 6.61017 17.7153 6.81671 17.5659 6.96582C17.417 7.11414 17.2109 7.19995 17 7.19995C16.79 7.19995 16.5835 7.11414 16.4351 6.96582C16.2861 6.81671 16.2002 6.61023 16.2002 6.39996C16.2002 6.18909 16.2861 5.98254 16.4351 5.83417C16.5278 5.74084 16.6436 5.67255 16.7686 5.63458ZM12 7.36206C9.44238 7.36206 7.36182 9.44275 7.36182 12.0002C7.36182 14.5576 9.44238 16.6382 12 16.6382C14.5576 16.6382 16.6382 14.5576 16.6382 12.0002C16.6382 9.44275 14.5576 7.36206 12 7.36206ZM12 15.8397C9.88281 15.8397 8.16016 14.1173 8.16016 12C8.16016 9.88257 9.88281 8.15997 12 8.15997C14.1177 8.15997 15.8403 9.88257 15.8403 12C15.8403 14.1173 14.1177 15.8397 12 15.8397Z" fill="white"/>
</mask>
<g mask="url(#mask0)">
</g>
</g>
</svg>
