<svg width="24" height="24" viewBox="0 0 24 24" fill="none" xmlns="http://www.w3.org/2000/svg">
<g id="ic/24/social/twitter">
<path id="Shape" fill-rule="evenodd" clip-rule="evenodd" d="M20.5303 6.09489C20.6524 6.06364 20.8052 6.09489 20.897 6.18864C20.9883 6.28239 21.0191 6.43864 20.9888 6.56364C20.7134 7.46977 20.1636 8.12602 19.4917 8.46977V8.5634C19.4917 14.5942 15.0918 19.5 9.71486 19.5C6.69045 19.5 4.24611 18.9688 3.14601 18.0627C3.02394 17.9377 2.96291 17.7814 3.02394 17.5939C3.08498 17.4377 3.23781 17.3127 3.42092 17.3127C5.22365 17.2814 6.38478 16.844 7.27053 16.3128C5.55959 16.094 4.49025 15.2504 3.94045 13.6568C3.87941 13.5005 3.94045 13.3443 4.06252 13.2505C4.18508 13.1568 4.36818 13.1568 4.49025 13.2193C4.94875 13.5318 5.40725 13.5943 5.95705 13.5943C4.79592 12.8757 3.72658 11.6882 3.29885 10.2195C3.28127 10.1286 3.29445 10.0271 3.33303 9.94585C3.36037 9.8875 3.40041 9.83952 3.45168 9.8134C3.60451 9.71965 3.75734 9.7509 3.87941 9.84465C4.07082 10.0049 4.27248 10.1348 4.51223 10.2342C4.69289 10.3091 4.89553 10.3667 5.13185 10.407C3.94045 9.15715 3.20705 7.31352 4.24611 5.28252L4.42922 4.90752L4.73488 5.22002C6.62892 7.25102 8.37062 8.18852 11.5479 8.8134V8.6884C11.5479 6.40739 13.2896 4.53252 15.4585 4.50127C16.314 4.50127 17.5054 5.12627 17.9946 5.40752C18.0249 5.40752 18.0557 5.43877 18.0557 5.40752C18.6665 5.22002 19.3999 4.90752 20.2554 4.53252C20.3775 4.47002 20.5303 4.50127 20.6221 4.59502C20.6641 4.63823 20.6934 4.68803 20.7066 4.74455C20.7222 4.81059 20.7158 4.88579 20.6831 4.97002C20.5303 5.40752 20.2857 5.87627 19.9195 6.31364L20.5303 6.09489ZM18.7354 8.23784L18.9131 8.17741C19.4761 7.96623 19.8023 7.51347 20.0098 7.12126L18.854 7.5136C18.7056 7.5739 18.5279 7.5136 18.4688 7.36272C18.4092 7.21172 18.439 7.03069 18.5576 6.94011C19.0318 6.54778 19.3872 6.12529 19.6543 5.67265C19.4141 5.77055 19.1831 5.86345 18.9644 5.94951C18.6436 6.07548 18.3477 6.18645 18.083 6.27617C18.0122 6.30022 17.9414 6.30986 17.8706 6.30705C17.7637 6.3029 17.6568 6.27031 17.5498 6.21587L17.5313 6.20537C17.1826 6.01164 16.0845 5.40153 15.4155 5.4312C13.6372 5.46135 12.2144 7.00053 12.2144 8.87163V9.7166L11.8589 9.6563C8.59865 9.05266 6.79055 8.17741 4.89357 6.27617C4.00441 8.56975 5.84182 10.1694 6.46437 10.622L7.2051 11.1652H6.28664C5.69387 11.1652 5.04152 11.1049 4.44875 10.8333C5.10109 12.2215 6.43459 13.2476 7.56105 13.5796L7.47219 14.1832C7.35549 14.1832 7.23879 14.1832 7.12209 14.1868C7.00148 14.1905 6.88137 14.198 6.76076 14.2133C6.36232 14.2327 5.9883 14.2397 5.63039 14.1946C5.42922 14.1694 5.23342 14.1276 5.04152 14.0624C5.6343 15.2093 6.67189 15.6922 8.36135 15.6922H9.25051L8.5093 16.2354C7.59084 16.9596 6.40529 17.6236 4.35988 17.7746C5.33791 18.2574 7.14601 18.7101 9.84328 18.7101C14.4644 18.7101 18.7354 13.9991 18.7354 8.7509V8.23784Z" fill="white"/>
<mask id="mask0" mask-type="alpha" maskUnits="userSpaceOnUse" x="3" y="4" width="19" height="16">
<path id="Shape_2" fill-rule="evenodd" clip-rule="evenodd" d="M20.5303 6.09489C20.6524 6.06364 20.8052 6.09489 20.897 6.18864C20.9883 6.28239 21.0191 6.43864 20.9888 6.56364C20.7134 7.46977 20.1636 8.12602 19.4917 8.46977V8.5634C19.4917 14.5942 15.0918 19.5 9.71486 19.5C6.69045 19.5 4.24611 18.9688 3.14601 18.0627C3.02394 17.9377 2.96291 17.7814 3.02394 17.5939C3.08498 17.4377 3.23781 17.3127 3.42092 17.3127C5.22365 17.2814 6.38478 16.844 7.27053 16.3128C5.55959 16.094 4.49025 15.2504 3.94045 13.6568C3.87941 13.5005 3.94045 13.3443 4.06252 13.2505C4.18508 13.1568 4.36818 13.1568 4.49025 13.2193C4.94875 13.5318 5.40725 13.5943 5.95705 13.5943C4.79592 12.8757 3.72658 11.6882 3.29885 10.2195C3.28127 10.1286 3.29445 10.0271 3.33303 9.94585C3.36037 9.8875 3.40041 9.83952 3.45168 9.8134C3.60451 9.71965 3.75734 9.7509 3.87941 9.84465C4.07082 10.0049 4.27248 10.1348 4.51223 10.2342C4.69289 10.3091 4.89553 10.3667 5.13185 10.407C3.94045 9.15715 3.20705 7.31352 4.24611 5.28252L4.42922 4.90752L4.73488 5.22002C6.62892 7.25102 8.37062 8.18852 11.5479 8.8134V8.6884C11.5479 6.40739 13.2896 4.53252 15.4585 4.50127C16.314 4.50127 17.5054 5.12627 17.9946 5.40752C18.0249 5.40752 18.0557 5.43877 18.0557 5.40752C18.6665 5.22002 19.3999 4.90752 20.2554 4.53252C20.3775 4.47002 20.5303 4.50127 20.6221 4.59502C20.6641 4.63823 20.6934 4.68803 20.7066 4.74455C20.7222 4.81059 20.7158 4.88579 20.6831 4.97002C20.5303 5.40752 20.2857 5.87627 19.9195 6.31364L20.5303 6.09489ZM18.7354 8.23784L18.9131 8.17741C19.4761 7.96623 19.8023 7.51347 20.0098 7.12126L18.854 7.5136C18.7056 7.5739 18.5279 7.5136 18.4688 7.36272C18.4092 7.21172 18.439 7.03069 18.5576 6.94011C19.0318 6.54778 19.3872 6.12529 19.6543 5.67265C19.4141 5.77055 19.1831 5.86345 18.9644 5.94951C18.6436 6.07548 18.3477 6.18645 18.083 6.27617C18.0122 6.30022 17.9414 6.30986 17.8706 6.30705C17.7637 6.3029 17.6568 6.27031 17.5498 6.21587L17.5313 6.20537C17.1826 6.01164 16.0845 5.40153 15.4155 5.4312C13.6372 5.46135 12.2144 7.00053 12.2144 8.87163V9.7166L11.8589 9.6563C8.59865 9.05266 6.79055 8.17741 4.89357 6.27617C4.00441 8.56975 5.84182 10.1694 6.46437 10.622L7.2051 11.1652H6.28664C5.69387 11.1652 5.04152 11.1049 4.44875 10.8333C5.10109 12.2215 6.43459 13.2476 7.56105 13.5796L7.47219 14.1832C7.35549 14.1832 7.23879 14.1832 7.12209 14.1868C7.00148 14.1905 6.88137 14.198 6.76076 14.2133C6.36232 14.2327 5.9883 14.2397 5.63039 14.1946C5.42922 14.1694 5.23342 14.1276 5.04152 14.0624C5.6343 15.2093 6.67189 15.6922 8.36135 15.6922H9.25051L8.5093 16.2354C7.59084 16.9596 6.40529 17.6236 4.35988 17.7746C5.33791 18.2574 7.14601 18.7101 9.84328 18.7101C14.4644 18.7101 18.7354 13.9991 18.7354 8.7509V8.23784Z" fill="white"/>
</mask>
<g mask="url(#mask0)">
</g>
</g>
</svg>
