<svg width="109" height="36" viewBox="0 0 109 36" fill="none" xmlns="http://www.w3.org/2000/svg">
<path d="M99.9493 0.000117H8.65289C8.32011 0.000117 7.99131 0.000117 7.65941 0.00191699C7.38157 0.00371699 7.10595 0.00894597 6.82544 0.013347C6.21606 0.0204586 5.6081 0.0736254 5.00687 0.172385C4.40648 0.273295 3.82489 0.46354 3.28179 0.736684C2.73934 1.01214 2.2437 1.37006 1.81283 1.79747C1.3797 2.22368 1.01866 2.71632 0.743575 3.25645C0.467735 3.7955 0.276467 4.37315 0.176376 4.96943C0.0753339 5.56497 0.0209622 6.16737 0.0137489 6.77123C0.00532713 7.04717 0.00443776 7.32402 0 7.6V28.4028C0.00443776 28.6822 0.00532713 28.9529 0.0137489 29.2325C0.0209644 29.8363 0.0753362 30.4387 0.176376 31.0342C0.27619 31.6308 0.46747 32.2088 0.743575 32.748C1.01853 33.2864 1.37963 33.7771 1.81283 34.2009C2.24206 34.6302 2.73803 34.9884 3.28179 35.2617C3.82489 35.5356 4.40641 35.727 5.00687 35.8295C5.60821 35.9274 6.2161 35.9806 6.82544 35.9886C7.10595 35.9947 7.38157 35.9982 7.65941 35.9982C7.99131 36 8.32013 36 8.65289 36H99.9493C100.275 36 100.607 36 100.933 35.9982C101.21 35.9982 101.493 35.9947 101.77 35.9886C102.378 35.981 102.985 35.9278 103.585 35.8295C104.187 35.7263 104.771 35.5349 105.316 35.2617C105.86 34.9882 106.355 34.6301 106.784 34.2009C107.216 33.7754 107.578 33.2851 107.856 32.748C108.13 32.2084 108.32 31.6305 108.418 31.0342C108.519 30.4386 108.576 29.8364 108.587 29.2325C108.59 28.9529 108.59 28.6822 108.59 28.4028C108.597 28.0758 108.597 27.7506 108.597 27.4183V8.58261C108.597 8.25302 108.597 7.92607 108.59 7.6C108.59 7.32402 108.59 7.04717 108.587 6.77119C108.576 6.16728 108.519 5.56501 108.418 4.9694C108.32 4.37346 108.13 3.79586 107.856 3.25641C107.296 2.17379 106.408 1.29254 105.316 0.736603C104.771 0.464126 104.187 0.273932 103.585 0.172304C102.985 0.0731093 102.378 0.0199239 101.77 0.013221C101.493 0.00882897 101.21 0.00355499 100.933 0.00179999C100.607 0 100.275 0 99.9493 0V0.000117Z" fill="#A6A6A6"/>
<path d="M7.66392 35.2125C7.38742 35.2125 7.1176 35.209 6.84326 35.2029C6.27496 35.1955 5.70798 35.1465 5.14698 35.0561C4.62388 34.9667 4.11714 34.8005 3.64346 34.563C3.17413 34.3274 2.74607 34.0184 2.37566 33.648C1.99989 33.282 1.68705 32.8574 1.44953 32.3912C1.20939 31.9219 1.0432 31.4189 0.956746 30.8997C0.863385 30.3418 0.812872 29.7777 0.805644 29.2122C0.799891 29.0224 0.792358 28.3904 0.792358 28.3904V7.59998C0.792358 7.59998 0.800381 6.97772 0.80569 6.7949C0.81261 6.23031 0.862829 5.66707 0.955911 5.11004C1.04252 4.58941 1.20884 4.08496 1.44911 3.61416C1.68576 3.14824 1.99687 2.72337 2.37037 2.356C2.74345 1.98515 3.17289 1.67464 3.64302 1.43578C4.1156 1.19898 4.62139 1.03396 5.14344 0.94624C5.70628 0.85495 6.27522 0.805594 6.8455 0.798587L7.66437 0.787598H100.929L101.757 0.799028C102.322 0.805687 102.886 0.854602 103.444 0.945358C103.971 1.03417 104.482 1.20035 104.96 1.43842C105.902 1.91978 106.668 2.68134 107.152 3.61635C107.388 4.08391 107.552 4.58424 107.638 5.10037C107.732 5.66197 107.785 6.22964 107.795 6.79886C107.798 7.05374 107.798 7.32752 107.798 7.59998C107.805 7.93748 107.805 8.25872 107.805 8.58259V27.4183C107.805 27.7453 107.805 28.0644 107.798 28.386C107.798 28.6787 107.798 28.9468 107.794 29.2227C107.784 29.7818 107.732 30.3393 107.639 30.8909C107.555 31.4138 107.389 31.9208 107.149 32.3939C106.91 32.8551 106.599 33.2759 106.228 33.641C105.857 34.0134 105.428 34.3241 104.958 34.5613C104.481 34.8006 103.971 34.9675 103.444 35.0561C102.883 35.1469 102.316 35.196 101.748 35.2029C101.482 35.209 101.203 35.2125 100.933 35.2125L99.9494 35.2143L7.66392 35.2125Z" fill="black"/>
<path d="M22.4784 18.2707C22.4881 17.5195 22.6893 16.783 23.0633 16.1296C23.4372 15.4762 23.9717 14.9273 24.617 14.5339C24.2071 13.9532 23.6662 13.4754 23.0375 13.1383C22.4087 12.8012 21.7094 12.6141 20.995 12.5919C19.471 12.4333 17.9936 13.4963 17.2171 13.4963C16.4255 13.4963 15.2298 12.6077 13.9423 12.634C13.1095 12.6606 12.2978 12.9008 11.5865 13.3311C10.8751 13.7613 10.2882 14.367 9.88302 15.089C8.12788 18.1026 9.43705 22.5315 11.1183 24.9675C11.9595 26.1603 12.9426 27.4927 14.229 27.4454C15.4878 27.3937 15.9579 26.6494 17.4773 26.6494C18.9827 26.6494 19.4238 27.4454 20.7362 27.4154C22.087 27.3937 22.938 26.2173 23.7497 25.0132C24.354 24.1633 24.8191 23.2239 25.1277 22.2299C24.3429 21.9008 23.6732 21.3498 23.2021 20.6458C22.731 19.9417 22.4793 19.1157 22.4784 18.2707Z" fill="white"/>
<path d="M19.9993 10.9899C20.7358 10.1132 21.0986 8.98619 21.0107 7.84839C19.8856 7.96559 18.8462 8.49889 18.0998 9.34203C17.7348 9.75393 17.4553 10.2331 17.2772 10.7522C17.0991 11.2713 17.026 11.8201 17.0619 12.3673C17.6246 12.373 18.1814 12.252 18.6902 12.0135C19.199 11.7749 19.6466 11.4249 19.9993 10.9899Z" fill="white"/>
<path d="M38.3904 24.4258H34.0947L33.0631 27.4465H31.2437L35.3124 16.2704H37.2028L41.2715 27.4465H39.4211L38.3904 24.4258ZM34.5396 23.0318H37.9446L36.2661 18.1293H36.2191L34.5396 23.0318Z" fill="white"/>
<path d="M50.0588 23.3729C50.0588 25.905 48.6923 27.5319 46.63 27.5319C46.1075 27.559 45.588 27.4396 45.1308 27.1875C44.6736 26.9354 44.2972 26.5607 44.0448 26.1063H44.0057V30.1422H42.3192V19.2983H43.9517V20.6536H43.9827C44.2468 20.2014 44.6295 19.8286 45.0902 19.5749C45.5509 19.3213 46.0723 19.1962 46.5989 19.2131C48.6842 19.2131 50.0588 20.8478 50.0588 23.3729ZM48.3253 23.3729C48.3253 21.7232 47.4657 20.6386 46.154 20.6386C44.8654 20.6386 43.9987 21.7461 43.9987 23.3729C43.9987 25.0147 44.8654 26.1142 46.154 26.1142C47.4657 26.1142 48.3253 25.0376 48.3253 23.3729Z" fill="white"/>
<path d="M59.1021 23.3729C59.1021 25.905 57.7355 27.5319 55.6732 27.5319C55.1507 27.559 54.6312 27.4396 54.174 27.1875C53.7168 26.9354 53.3404 26.5607 53.088 26.1063H53.049V30.1422H51.3624V19.2983H52.9949V20.6536H53.0259C53.29 20.2014 53.6727 19.8286 54.1334 19.5749C54.5941 19.3213 55.1155 19.1962 55.6421 19.2131C57.7275 19.2131 59.1021 20.8478 59.1021 23.3729ZM57.3686 23.3729C57.3686 21.7232 56.5089 20.6386 55.1972 20.6386C53.9086 20.6386 53.0419 21.746 53.0419 23.3729C53.0419 25.0147 53.9086 26.1142 55.1972 26.1142C56.5089 26.1142 57.3686 25.0375 57.3686 23.3729H57.3686Z" fill="white"/>
<path d="M65.079 24.3325C65.2039 25.4408 66.2896 26.1685 67.7732 26.1685C69.1947 26.1685 70.2174 25.4408 70.2174 24.4415C70.2174 23.574 69.6006 23.0546 68.1401 22.6986L66.6795 22.3497C64.6102 21.854 63.6495 20.8942 63.6495 19.3368C63.6495 17.4085 65.344 16.084 67.7501 16.084C70.1315 16.084 71.7639 17.4085 71.8189 19.3368H70.1164C70.0145 18.2215 69.0848 17.5482 67.7262 17.5482C66.3676 17.5482 65.4379 18.2294 65.4379 19.2208C65.4379 20.0109 66.0317 20.4759 67.4842 20.8318L68.7259 21.1341C71.0381 21.6764 71.9988 22.5975 71.9988 24.2323C71.9988 26.3232 70.3193 27.6327 67.6482 27.6327C65.149 27.6327 63.4615 26.3539 63.3525 24.3325L65.079 24.3325Z" fill="white"/>
<path d="M75.6387 17.3699V19.2982H77.2011V20.6227H75.6387V25.1148C75.6387 25.8126 75.9515 26.1378 76.6384 26.1378C76.8239 26.1346 77.009 26.1217 77.1932 26.0991V27.4157C76.8844 27.4729 76.5705 27.4988 76.2564 27.4931C74.5929 27.4931 73.9442 26.8734 73.9442 25.2932V20.6227H72.7495V19.2982H73.9441V17.3699H75.6387Z" fill="white"/>
<path d="M78.106 23.3728C78.106 20.809 79.6285 19.198 82.0028 19.198C84.385 19.198 85.9005 20.809 85.9005 23.3728C85.9005 25.9436 84.393 27.5476 82.0028 27.5476C79.6134 27.5476 78.106 25.9436 78.106 23.3728ZM84.1821 23.3728C84.1821 21.6141 83.3694 20.5761 82.0028 20.5761C80.6362 20.5761 79.8244 21.622 79.8244 23.3728C79.8244 25.1385 80.6362 26.1686 82.0028 26.1686C83.3694 26.1686 84.182 25.1385 84.182 23.3728H84.1821Z" fill="white"/>
<path d="M87.291 19.2982H88.8996V20.6851H88.9386C89.0474 20.252 89.3033 19.8692 89.6632 19.6011C90.0231 19.333 90.4651 19.1959 90.9149 19.213C91.1093 19.2123 91.3031 19.2332 91.4928 19.2754V20.8398C91.2474 20.7655 90.9914 20.7313 90.735 20.7387C90.49 20.7289 90.2457 20.7717 90.019 20.8643C89.7922 20.9569 89.5884 21.0971 89.4214 21.2752C89.2545 21.4533 89.1283 21.6651 89.0517 21.8961C88.9751 22.1271 88.9498 22.3718 88.9775 22.6134V27.4465H87.291L87.291 19.2982Z" fill="white"/>
<path d="M99.2686 25.0533C99.0417 26.5324 97.5892 27.5476 95.7307 27.5476C93.3405 27.5476 91.8569 25.9594 91.8569 23.4115C91.8569 20.8556 93.3485 19.198 95.6598 19.198C97.933 19.198 99.3626 20.7466 99.3626 23.2172V23.7903H93.5594V23.8913C93.5326 24.1912 93.5705 24.4933 93.6705 24.7776C93.7705 25.0618 93.9303 25.3217 94.1394 25.54C94.3484 25.7583 94.6019 25.93 94.883 26.0437C95.1641 26.1574 95.4664 26.2104 95.7697 26.1993C96.1683 26.2364 96.5682 26.1448 96.9101 25.9383C97.252 25.7318 97.5175 25.4214 97.6672 25.0532L99.2686 25.0533ZM93.5674 22.6213H97.6752C97.6903 22.3517 97.6491 22.0819 97.5541 21.8288C97.4591 21.5757 97.3124 21.3448 97.1231 21.1506C96.9339 20.9564 96.7062 20.8031 96.4544 20.7003C96.2026 20.5975 95.9321 20.5475 95.6598 20.5533C95.3852 20.5516 95.1129 20.604 94.8588 20.7072C94.6046 20.8105 94.3736 20.9627 94.1791 21.1549C93.9846 21.3472 93.8304 21.5758 93.7254 21.8275C93.6204 22.0792 93.5667 22.349 93.5674 22.6213V22.6213Z" fill="white"/>
<path d="M34.3279 7.85802C34.6815 7.83286 35.0363 7.88583 35.3667 8.01312C35.6972 8.14041 35.995 8.33884 36.2387 8.5941C36.4825 8.84937 36.6661 9.15509 36.7762 9.48924C36.8864 9.82338 36.9204 10.1776 36.8759 10.5264C36.8759 12.242 35.9409 13.2282 34.3279 13.2282H32.3719V7.85802H34.3279ZM33.213 12.4687H34.234C34.4866 12.4837 34.7395 12.4426 34.9741 12.3484C35.2087 12.2543 35.4192 12.1094 35.5903 11.9244C35.7613 11.7394 35.8886 11.5189 35.9629 11.279C36.0372 11.039 36.0566 10.7856 36.0197 10.5373C36.054 10.29 36.0326 10.0382 35.9572 9.79997C35.8817 9.56178 35.7541 9.34307 35.5834 9.15954C35.4128 8.976 35.2033 8.83218 34.97 8.73836C34.7367 8.64455 34.4853 8.60307 34.234 8.61691H33.213V12.4687Z" fill="white"/>
<path d="M37.826 11.2C37.8003 10.9337 37.831 10.665 37.9162 10.4111C38.0014 10.1573 38.1391 9.92386 38.3205 9.72587C38.502 9.52789 38.7232 9.3697 38.9699 9.26145C39.2166 9.15321 39.4834 9.09729 39.7532 9.09729C40.0229 9.09729 40.2897 9.15321 40.5364 9.26145C40.7832 9.3697 41.0043 9.52789 41.1858 9.72587C41.3672 9.92386 41.505 10.1573 41.5901 10.4111C41.6753 10.665 41.706 10.9337 41.6803 11.2C41.7065 11.4666 41.6761 11.7357 41.5912 11.99C41.5063 12.2442 41.3686 12.4781 41.1871 12.6765C41.0056 12.8748 40.7843 13.0333 40.5373 13.1418C40.2904 13.2503 40.0233 13.3064 39.7532 13.3064C39.4831 13.3064 39.2159 13.2503 38.969 13.1418C38.722 13.0333 38.5007 12.8748 38.3192 12.6765C38.1377 12.4781 38.0001 12.2442 37.9151 11.99C37.8302 11.7357 37.7998 11.4666 37.826 11.2ZM40.8508 11.2C40.8508 10.3216 40.4528 9.80785 39.7545 9.80785C39.0535 9.80785 38.6591 10.3216 38.6591 11.2C38.6591 12.0855 39.0535 12.5953 39.7545 12.5953C40.4529 12.5953 40.8508 12.082 40.8508 11.2H40.8508Z" fill="white"/>
<path d="M46.8036 13.228H45.967L45.1224 10.2433H45.0586L44.2175 13.228H43.3889L42.2625 9.17542H43.0805L43.8125 12.2678H43.8728L44.7129 9.17542H45.4866L46.3268 12.2678H46.3906L47.1191 9.17542H47.9256L46.8036 13.228Z" fill="white"/>
<path d="M48.8731 9.17548H49.6494V9.81927H49.7097C49.8119 9.58805 49.9843 9.39421 50.2029 9.26479C50.4215 9.13536 50.6754 9.07679 50.9291 9.09725C51.128 9.08243 51.3276 9.11216 51.5133 9.18424C51.699 9.25633 51.8659 9.36892 52.0018 9.51368C52.1376 9.65844 52.2389 9.83165 52.298 10.0205C52.3572 10.2093 52.3728 10.409 52.3436 10.6046V13.2281H51.5371V10.8054C51.5371 10.1541 51.2517 9.83026 50.6553 9.83026C50.5203 9.82403 50.3855 9.84681 50.2602 9.89706C50.135 9.94731 50.0221 10.0238 49.9294 10.1214C49.8367 10.2189 49.7664 10.3352 49.7233 10.4622C49.6802 10.5892 49.6652 10.724 49.6795 10.8573V13.2281H48.873L48.8731 9.17548Z" fill="white"/>
<path d="M53.6285 7.59338H54.435V13.228H53.6285V7.59338Z" fill="white"/>
<path d="M55.5562 11.2C55.5305 10.9336 55.5613 10.6649 55.6465 10.411C55.7316 10.1572 55.8694 9.92375 56.0509 9.72576C56.2323 9.52778 56.4535 9.36958 56.7002 9.26134C56.947 9.15309 57.2138 9.09717 57.4836 9.09717C57.7534 9.09717 58.0202 9.15309 58.2669 9.26134C58.5136 9.36958 58.7348 9.52778 58.9163 9.72576C59.0978 9.92375 59.2355 10.1572 59.3207 10.411C59.4059 10.6649 59.4366 10.9336 59.4109 11.2C59.4371 11.4666 59.4067 11.7357 59.3217 11.9899C59.2368 12.2442 59.0991 12.478 58.9176 12.6764C58.7361 12.8748 58.5147 13.0333 58.2678 13.1418C58.0208 13.2502 57.7537 13.3063 57.4836 13.3063C57.2135 13.3063 56.9464 13.2502 56.6994 13.1418C56.4524 13.0333 56.2311 12.8748 56.0496 12.6764C55.868 12.478 55.7304 12.2442 55.6454 11.9899C55.5605 11.7357 55.5301 11.4666 55.5562 11.2ZM58.581 11.2C58.581 10.3215 58.183 9.8078 57.4847 9.8078C56.7837 9.8078 56.3893 10.3215 56.3893 11.2C56.3893 12.0855 56.7837 12.5952 57.4847 12.5952C58.183 12.5952 58.581 12.082 58.581 11.2H58.581Z" fill="white"/>
<path d="M60.26 12.0819C60.26 11.3524 60.8077 10.9319 61.7799 10.8721L62.8869 10.8088V10.459C62.8869 10.031 62.6015 9.7893 62.0502 9.7893C61.6 9.7893 61.2881 9.95322 61.1985 10.2397H60.4178C60.5002 9.54365 61.1604 9.09717 62.0875 9.09717C63.112 9.09717 63.6898 9.60297 63.6898 10.459V13.228H62.9134V12.6585H62.8496C62.7201 12.8628 62.5382 13.0293 62.3226 13.1411C62.1069 13.2529 61.8652 13.3059 61.6222 13.2948C61.4506 13.3125 61.2772 13.2943 61.1132 13.2415C60.9491 13.1887 60.7981 13.1023 60.6697 12.9881C60.5414 12.8738 60.4386 12.7341 60.3681 12.578C60.2975 12.422 60.2607 12.253 60.26 12.0819ZM62.8869 11.7356V11.3968L61.8889 11.4601C61.3262 11.4974 61.0709 11.6873 61.0709 12.0446C61.0709 12.4093 61.39 12.6216 61.8287 12.6216C61.9572 12.6345 62.0871 12.6216 62.2105 12.5837C62.3339 12.5458 62.4484 12.4837 62.5472 12.4011C62.6459 12.3184 62.7268 12.2169 62.7852 12.1026C62.8435 11.9883 62.8781 11.8635 62.8869 11.7356Z" fill="white"/>
<path d="M64.7496 11.2C64.7496 9.91942 65.4134 9.10819 66.4459 9.10819C66.7013 9.09652 66.9548 9.15718 67.1767 9.28308C67.3986 9.40899 67.5798 9.59493 67.6991 9.81918H67.7593V7.59338H68.5658V13.228H67.793V12.5877H67.7292C67.6007 12.8105 67.4132 12.9941 67.187 13.1188C66.9608 13.2434 66.7045 13.3043 66.4459 13.2948C65.4063 13.2949 64.7496 12.4836 64.7496 11.2ZM65.5827 11.2C65.5827 12.0595 65.9913 12.5768 66.6746 12.5768C67.3543 12.5768 67.7744 12.0521 67.7744 11.2035C67.7744 10.3589 67.3499 9.82669 66.6746 9.82669C65.9957 9.82669 65.5827 10.3474 65.5827 11.2H65.5827Z" fill="white"/>
<path d="M71.9027 11.2C71.877 10.9337 71.9077 10.665 71.9929 10.4111C72.078 10.1573 72.2157 9.92386 72.3972 9.72587C72.5787 9.52789 72.7998 9.3697 73.0465 9.26145C73.2932 9.15321 73.56 9.09729 73.8298 9.09729C74.0996 9.09729 74.3664 9.15321 74.6131 9.26145C74.8598 9.3697 75.081 9.52789 75.2624 9.72587C75.4439 9.92386 75.5816 10.1573 75.6668 10.4111C75.7519 10.665 75.7827 10.9337 75.757 11.2C75.7831 11.4666 75.7528 11.7357 75.6679 11.99C75.5829 12.2442 75.4453 12.4781 75.2638 12.6765C75.0823 12.8748 74.8609 13.0333 74.614 13.1418C74.367 13.2503 74.0999 13.3064 73.8298 13.3064C73.5597 13.3064 73.2926 13.2503 73.0457 13.1418C72.7987 13.0333 72.5774 12.8748 72.3959 12.6765C72.2144 12.4781 72.0767 12.2442 71.9918 11.99C71.9068 11.7357 71.8765 11.4666 71.9027 11.2ZM74.9274 11.2C74.9274 10.3216 74.5295 9.80785 73.8311 9.80785C73.1301 9.80785 72.7358 10.3216 72.7358 11.2C72.7358 12.0855 73.1302 12.5953 73.8311 12.5953C74.5295 12.5953 74.9274 12.082 74.9274 11.2Z" fill="white"/>
<path d="M76.839 9.17548H77.6153V9.81927H77.6756C77.7778 9.58805 77.9503 9.39421 78.1689 9.26479C78.3875 9.13536 78.6413 9.07679 78.8951 9.09725C79.0939 9.08243 79.2936 9.11216 79.4793 9.18424C79.6649 9.25633 79.8319 9.36892 79.9677 9.51368C80.1036 9.65844 80.2048 9.83165 80.264 10.0205C80.3232 10.2093 80.3387 10.409 80.3095 10.6046V13.2281H79.5031V10.8054C79.5031 10.1541 79.2177 9.83026 78.6212 9.83026C78.4862 9.82403 78.3515 9.84681 78.2262 9.89706C78.1009 9.94731 77.988 10.0238 77.8954 10.1214C77.8027 10.2189 77.7324 10.3352 77.6892 10.4622C77.6461 10.5892 77.6312 10.724 77.6455 10.8573V13.2281H76.839V9.17548Z" fill="white"/>
<path d="M84.8666 8.16638V9.19382H85.752V9.8675H84.8666V11.9514C84.8666 12.3759 85.043 12.5618 85.4445 12.5618C85.5472 12.5615 85.6499 12.5553 85.752 12.5433V13.2095C85.6072 13.2352 85.4604 13.2489 85.3133 13.2504C84.4164 13.2504 84.0593 12.9375 84.0593 12.1562V9.86747H83.4105V9.19378H84.0593V8.16638H84.8666Z" fill="white"/>
<path d="M86.8536 7.59338H87.653V9.82668H87.7168C87.824 9.59329 88.0012 9.39836 88.2242 9.26845C88.4472 9.13854 88.7051 9.07996 88.9629 9.10071C89.1607 9.09003 89.3584 9.12278 89.542 9.19662C89.7255 9.27046 89.8904 9.38356 90.0249 9.52787C90.1593 9.67217 90.2599 9.84412 90.3196 10.0314C90.3793 10.2188 90.3966 10.4168 90.3702 10.6115V13.228H89.5629V10.8088C89.5629 10.1615 89.2589 9.8337 88.6891 9.8337C88.5505 9.82243 88.4111 9.84133 88.2806 9.88907C88.1501 9.93682 88.0317 10.0123 87.9337 10.1101C87.8357 10.208 87.7604 10.3259 87.7132 10.4556C87.6659 10.5854 87.6478 10.7238 87.6602 10.8611V13.228H86.8537L86.8536 7.59338Z" fill="white"/>
<path d="M95.0726 12.1337C94.963 12.5041 94.7256 12.8245 94.4019 13.0388C94.0782 13.2532 93.6888 13.3478 93.3019 13.3062C93.0326 13.3132 92.7651 13.2621 92.5178 13.1563C92.2705 13.0505 92.0494 12.8927 91.8698 12.6936C91.6901 12.4946 91.5564 12.2592 91.4777 12.0038C91.399 11.7483 91.3773 11.479 91.4142 11.2144C91.3783 10.949 91.4004 10.6791 91.4789 10.4229C91.5573 10.1667 91.6904 9.93016 91.8691 9.72939C92.0477 9.52863 92.2678 9.36828 92.5144 9.25919C92.761 9.1501 93.0283 9.09483 93.2983 9.09711C94.4354 9.09711 95.1213 9.86751 95.1213 11.1401V11.4192H92.2357V11.464C92.2231 11.6127 92.2419 11.7624 92.291 11.9035C92.3402 12.0446 92.4185 12.1739 92.5209 12.2832C92.6234 12.3925 92.7478 12.4794 92.8861 12.5383C93.0244 12.5971 93.1735 12.6267 93.324 12.625C93.5169 12.648 93.7124 12.6135 93.8855 12.526C94.0586 12.4385 94.2016 12.302 94.2962 12.1337L95.0726 12.1337ZM92.2357 10.8277H94.2998C94.3099 10.6917 94.2913 10.555 94.245 10.4266C94.1988 10.2981 94.126 10.1807 94.0312 10.0818C93.9365 9.98297 93.822 9.90485 93.695 9.85249C93.568 9.80013 93.4314 9.7747 93.2939 9.77783C93.1544 9.77609 93.016 9.80206 92.8867 9.85421C92.7575 9.90636 92.6402 9.98363 92.5416 10.0815C92.4429 10.1793 92.3651 10.2957 92.3126 10.4239C92.26 10.5521 92.2339 10.6893 92.2357 10.8277H92.2357Z" fill="white"/>
</svg>
