<svg width="24" height="24" viewBox="0 0 24 24" fill="none" xmlns="http://www.w3.org/2000/svg">
<g id="ic/24/social/facebook">
<path id="Shape" fill-rule="evenodd" clip-rule="evenodd" d="M19.5 3H4.5C3.66016 3 3 3.66003 3 4.5V19.5C3 20.34 3.66016 21 4.5 21H11.3999H15H19.5C20.3398 21 21 20.34 21 19.5V4.5C21 3.66003 20.3398 3 19.5 3ZM12.0518 14.2609H9.7998V11.9652H12.0518V9.95654C12.0518 8.32092 13.29 6.94348 14.8667 6.80005H17.3999V9.0957H15.1479C14.6694 9.0957 14.3037 9.46875 14.3037 9.95654V11.9652H17.1182V14.2609H14.3037V20.2001H12.0518V14.2609ZM14.9282 20.2001H19.3213C19.8193 20.2001 20.1997 19.8193 20.1997 19.3215V4.67859C20.1997 4.18079 19.8193 3.80005 19.3213 3.80005H4.67822C4.18066 3.80005 3.7998 4.18079 3.7998 4.67859V19.3215C3.7998 19.8193 4.18066 20.2001 4.67822 20.2001H11.4141V14.9286H9.07129V11.4143H11.4141V9.95007C11.4141 7.98792 12.937 6.3186 14.8989 6.14294H18.1499V9.65723H15.2212C15.0454 9.65723 14.9282 9.77429 14.9282 9.95007V11.4143H17.8569V14.9286H14.9282V20.2001Z" fill="white"/>
<mask id="mask0" mask-type="alpha" maskUnits="userSpaceOnUse" x="3" y="3" width="18" height="18">
<path id="Shape_2" fill-rule="evenodd" clip-rule="evenodd" d="M19.5 3H4.5C3.66016 3 3 3.66003 3 4.5V19.5C3 20.34 3.66016 21 4.5 21H11.3999H15H19.5C20.3398 21 21 20.34 21 19.5V4.5C21 3.66003 20.3398 3 19.5 3ZM12.0518 14.2609H9.7998V11.9652H12.0518V9.95654C12.0518 8.32092 13.29 6.94348 14.8667 6.80005H17.3999V9.0957H15.1479C14.6694 9.0957 14.3037 9.46875 14.3037 9.95654V11.9652H17.1182V14.2609H14.3037V20.2001H12.0518V14.2609ZM14.9282 20.2001H19.3213C19.8193 20.2001 20.1997 19.8193 20.1997 19.3215V4.67859C20.1997 4.18079 19.8193 3.80005 19.3213 3.80005H4.67822C4.18066 3.80005 3.7998 4.18079 3.7998 4.67859V19.3215C3.7998 19.8193 4.18066 20.2001 4.67822 20.2001H11.4141V14.9286H9.07129V11.4143H11.4141V9.95007C11.4141 7.98792 12.937 6.3186 14.8989 6.14294H18.1499V9.65723H15.2212C15.0454 9.65723 14.9282 9.77429 14.9282 9.95007V11.4143H17.8569V14.9286H14.9282V20.2001Z" fill="white"/>
</mask>
<g mask="url(#mask0)">
</g>
</g>
</svg>
