<svg width="192" height="21" viewBox="0 0 192 21" fill="none" xmlns="http://www.w3.org/2000/svg">
<g id="white-logo">
<g id="XMLID_234_">
<path id="XMLID_243_" d="M15.0768 1.84618V12.4616C15.0768 16 13.5383 17.4616 9.846 17.4616C6.1537 17.4616 4.61523 16 4.61523 12.4616V1.38464H1.07677C0.846004 1.38464 0.615234 1.61541 0.615234 1.84618V12.6154C0.615234 18.5385 4.38447 20.6154 9.846 20.6154C15.3075 20.6154 19.0768 18.5385 19.0768 12.6154V1.38464H15.5383C15.3075 1.38464 15.0768 1.53849 15.0768 1.84618Z" fill="white"/>
<path id="XMLID_242_" d="M66.5383 4.46157C66.846 4.46157 66.9998 4.38464 67.0767 4.15387L68.0767 1.61541C68.1537 1.46157 68.0767 1.38464 67.9229 1.38464H53.6152C52.3075 1.38464 51.769 1.76926 51.769 2.69234V19.1539C51.769 19.9231 52.1537 20.3077 53.1537 20.3077H66.4614C66.769 20.3077 66.9229 20.2308 66.9998 20L67.9998 17.4616C68.0767 17.3077 67.9998 17.2308 67.846 17.2308H55.6921V13.8462C55.6921 12.6923 56.3075 12.1539 58.0767 12.1539H63.3844C63.6921 12.1539 63.846 12.077 63.9229 11.8462L64.9229 9.38464C64.9998 9.2308 64.9229 9.15387 64.769 9.15387H55.769V4.38464H66.5383V4.46157Z" fill="white"/>
<path id="XMLID_238_" fill-rule="evenodd" clip-rule="evenodd" d="M41.3848 10.3077C42.9233 9.46155 43.5386 8 43.5386 6.15387C43.5386 2 40.1538 1.38464 36.6152 1.38464H28.5386C27.231 1.38464 26.6924 1.76929 26.6924 2.69232V19.1539C26.6924 19.9231 27.0771 20.3077 28.0771 20.3077H38C41.7695 20.3077 44.3848 18.8462 44.3848 15.077C44.4614 12.7693 43.5386 10.8462 41.3848 10.3077ZM30.6924 4.38464H36.9233C39 4.38464 39.6152 5.15387 39.6152 6.76929C39.6152 8.38464 39 9.15387 36.9233 9.15387H30.6924V4.38464ZM30.6924 17.2308H37.6924C39.9233 17.2308 40.5386 16.4616 40.5386 14.6923C40.5386 12.9231 39.9233 12.077 37.6924 12.077H33.0771C31.3076 12.077 30.6924 12.6154 30.6924 13.7693V17.2308Z" fill="white"/>
<path id="XMLID_235_" fill-rule="evenodd" clip-rule="evenodd" d="M88.6152 12.6923L92.8462 20C92.9229 20.077 92.9229 20.3077 92.769 20.3077H89.1538C88.9873 20.3077 88.8882 20.2852 88.8076 20.2278C88.7397 20.1793 88.6855 20.1058 88.6152 20L84.769 13.077H81.3076C79.5386 13.077 78.9229 13.6154 78.9229 14.7693V20.3077H75.4614C75.231 20.3077 75 20.077 75 19.8462V2.69232C75 1.76929 75.5386 1.38464 76.8462 1.38464H84.9229C89.6152 1.38464 92.4614 2.61542 92.4614 7.23077C92.4614 10.7693 90.6924 12.1539 88.6152 12.6923ZM78.8462 10.1539H85.4614C87.9233 10.1539 88.4614 9.23077 88.4614 7.23077C88.4614 5.30774 87.9233 4.38464 85.4614 4.38464H78.8462V10.1539Z" fill="white"/>
</g>
<g id="XMLID_224_">
<path id="XMLID_232_" d="M122.307 18.6154L122.23 20.3077H108.23V1.38464H121.692L121.769 3.15387H110.154V9.69234H120.154V11.2308H110.154V18.6154H122.307Z" fill="#57AD56" stroke="#57AD56" stroke-width="0.25"/>
<g id="XMLID_229_">
<path fill-rule="evenodd" clip-rule="evenodd" d="M133.923 15.3846H145.077L147.23 20.3077H149.384L140.692 1.38464H138.461L129.692 20.3077H131.769L133.923 15.3846ZM134.615 13.7692L138.692 4.61542L139.461 2.69232H139.538L140.307 4.61542L144.307 13.7692H134.615Z" fill="#57AD56"/>
<path d="M145.077 15.3846L145.191 15.3345L145.158 15.2596H145.077V15.3846ZM133.923 15.3846V15.2596H133.841L133.808 15.3345L133.923 15.3846ZM147.23 20.3077L147.116 20.3578L147.149 20.4327H147.23V20.3077ZM149.384 20.3077V20.4327H149.579L149.498 20.2556L149.384 20.3077ZM140.692 1.38464L140.805 1.33247L140.772 1.25964H140.692V1.38464ZM138.461 1.38464V1.25964H138.381L138.348 1.33209L138.461 1.38464ZM129.692 20.3077L129.578 20.2552L129.496 20.4327H129.692V20.3077ZM131.769 20.3077V20.4327H131.851L131.884 20.3578L131.769 20.3077ZM138.692 4.61542L138.806 4.66631L138.808 4.66183L138.692 4.61542ZM134.615 13.7692L134.501 13.7184L134.422 13.8942H134.615V13.7692ZM139.461 2.69232V2.56732H139.376L139.345 2.64591L139.461 2.69232ZM139.538 2.69232L139.654 2.64588L139.622 2.56732H139.538V2.69232ZM140.307 4.61542L140.191 4.66188L140.193 4.66547L140.307 4.61542ZM144.307 13.7692V13.8942H144.498L144.422 13.7192L144.307 13.7692ZM145.077 15.2596H133.923V15.5096H145.077V15.2596ZM147.345 20.2576L145.191 15.3345L144.962 15.4347L147.116 20.3578L147.345 20.2576ZM149.384 20.1827H147.23V20.4327H149.384V20.1827ZM140.578 1.43682L149.271 20.3599L149.498 20.2556L140.805 1.33247L140.578 1.43682ZM138.461 1.50964H140.692V1.25964H138.461V1.50964ZM129.805 20.3603L138.574 1.4372L138.348 1.33209L129.578 20.2552L129.805 20.3603ZM131.769 20.1827H129.692V20.4327H131.769V20.1827ZM133.808 15.3345L131.655 20.2576L131.884 20.3578L134.037 15.4347L133.808 15.3345ZM138.578 4.56456L134.501 13.7184L134.729 13.8201L138.806 4.66628L138.578 4.56456ZM139.345 2.64591L138.576 4.569L138.808 4.66183L139.577 2.73874L139.345 2.64591ZM139.538 2.56732H139.461V2.81732H139.538V2.56732ZM140.423 4.56898L139.654 2.64588L139.422 2.73876L140.191 4.66186L140.423 4.56898ZM144.422 13.7192L140.422 4.56537L140.193 4.66547L144.193 13.8193L144.422 13.7192ZM134.615 13.8942H144.307V13.6442H134.615V13.8942Z" fill="#57AD56"/>
</g>
<path id="XMLID_227_" d="M163.23 3.15387V20.3077H161.307V3.15387H154.23L154.307 1.38464H170.384V3.15387H163.23Z" fill="#57AD56" stroke="#57AD56" stroke-width="0.25"/>
<path id="XMLID_225_" d="M184.077 20.6923C181.461 20.6923 179.384 20.0769 177.692 19.0769L178 17.3846C179.769 18.3846 181.769 19 184.153 19C187.692 19 189.538 17.3846 189.538 15.0769C189.538 10.0769 178 12.6923 178 6.23077C178 3.46154 180.077 1 184.923 1C187.153 1 189.153 1.38462 190.769 2.15385L190.461 3.76923C188.692 3.07692 187 2.69231 185 2.69231C181.23 2.69231 179.846 4.38462 179.846 6.07692C179.846 10.8462 191.384 8.15385 191.384 14.9231C191.307 18.3077 188.846 20.6923 184.077 20.6923Z" fill="#57AD56" stroke="#57AD56" stroke-width="0.25"/>
</g>
</g>
</svg>
